<svg width="447" height="427" viewBox="0 0 447 427" xmlns="http://www.w3.org/2000/svg"><title>Group 4</title><g fill="none" fill-rule="evenodd"><path d="M223.78 85.327a1.91 1.91 0 0 1-1.91-1.91V16.565a1.91 1.91 0 1 1 3.82 0v66.852a1.91 1.91 0 0 1-1.91 1.91" fill="#FFC850"/><path d="M223.78 4.777a4.78 4.78 0 0 0-4.773 4.775 4.78 4.78 0 0 0 4.773 4.775 4.78 4.78 0 0 0 4.774-4.775 4.78 4.78 0 0 0-4.774-4.775m0 13.37c-4.737 0-8.592-3.856-8.592-8.595 0-4.74 3.855-8.595 8.592-8.595 4.738 0 8.593 3.856 8.593 8.595 0 4.739-3.855 8.596-8.593 8.596" fill="#FFC850"/><path d="M79.408 190.252c-.195 0-.394-.03-.59-.093l-63.559-20.66a1.911 1.911 0 0 1 1.18-3.633L80 186.525a1.912 1.912 0 0 1-.59 3.727" fill="#0EE287"/><path d="M9.176 160.738a4.76 4.76 0 0 0-2.162.523 4.748 4.748 0 0 0-2.373 2.78 4.782 4.782 0 0 0 3.066 6.017 4.779 4.779 0 0 0 6.015-3.066 4.783 4.783 0 0 0-4.546-6.254m0 13.374c-.88 0-1.77-.136-2.65-.421-4.506-1.466-6.98-6.324-5.516-10.832a8.536 8.536 0 0 1 4.27-5.002 8.538 8.538 0 0 1 6.557-.516c4.505 1.465 6.98 6.324 5.517 10.83-1.18 3.629-4.556 5.94-8.179 5.94" fill="#0EE287"/><path d="M95.27 414.114a1.91 1.91 0 0 1-1.543-3.033l39.28-54.084a1.911 1.911 0 0 1 2.668-.422 1.911 1.911 0 0 1 .423 2.668l-39.281 54.084a1.91 1.91 0 0 1-1.547.787" fill="#34BBD1"/><path d="M85.744 413.948h.01-.01zm5.413-.844a4.766 4.766 0 0 0-3.868 1.967 4.745 4.745 0 0 0-.853 3.554 4.74 4.74 0 0 0 1.909 3.115 4.78 4.78 0 0 0 6.668-1.055 4.75 4.75 0 0 0 .853-3.555 4.746 4.746 0 0 0-1.91-3.116 4.748 4.748 0 0 0-2.8-.91zm-.018 13.365a8.542 8.542 0 0 1-5.039-1.638 8.538 8.538 0 0 1-3.436-5.609 8.545 8.545 0 0 1 1.535-6.397c2.784-3.832 8.168-4.687 12.002-1.901a8.54 8.54 0 0 1 3.436 5.61 8.544 8.544 0 0 1-1.535 6.396 8.588 8.588 0 0 1-6.963 3.54z" fill="#34BBD1"/><path d="M352.29 414.111a1.91 1.91 0 0 1-1.548-.787l-39.281-54.083a1.91 1.91 0 0 1 3.09-2.247l39.281 54.084a1.911 1.911 0 0 1-1.543 3.033" fill="#0570A5"/><path d="M352.546 420.683a4.746 4.746 0 0 0 3.114 1.909 4.736 4.736 0 0 0 3.554-.854 4.78 4.78 0 0 0 1.055-6.67 4.74 4.74 0 0 0-3.115-1.91 4.725 4.725 0 0 0-3.552.854 4.782 4.782 0 0 0-1.056 6.67m3.88 5.79a8.71 8.71 0 0 1-1.362-.107 8.54 8.54 0 0 1-5.608-3.438c-2.784-3.834-1.931-9.22 1.9-12.006a8.537 8.537 0 0 1 6.396-1.536 8.535 8.535 0 0 1 5.607 3.439c2.785 3.834 1.933 9.219-1.9 12.005a8.532 8.532 0 0 1-5.033 1.643" fill="#0570A5"/><path d="M91.923 188.009a1.911 1.911 0 0 1-1.124-3.456l125.857-91.47a1.91 1.91 0 0 1 2.245 3.09L93.044 187.645a1.9 1.9 0 0 1-1.12.365" fill="#0EE287"/><path d="M355.643 188.014c-.39 0-.781-.118-1.121-.365L228.659 96.174a1.91 1.91 0 0 1 2.245-3.091l125.863 91.475a1.91 1.91 0 0 1-1.124 3.456" fill="#FFC850"/><path d="M311.274 347.38a1.912 1.912 0 0 1-1.816-2.502l48.07-147.97a1.91 1.91 0 1 1 3.633 1.18l-48.07 147.971a1.914 1.914 0 0 1-1.817 1.321" fill="#FF7070"/><path d="M301.112 354.286H146.449a1.91 1.91 0 0 1 0-3.82h154.663a1.91 1.91 0 0 1 0 3.82" fill="#0570A5"/><path d="M136.173 347.432a1.912 1.912 0 0 1-1.816-1.32L86.17 198.106a1.91 1.91 0 0 1 3.632-1.183L137.99 344.93a1.911 1.911 0 0 1-1.816 2.503" fill="#34BBD1"/><path d="M368.153 190.263a1.911 1.911 0 0 1-.59-3.728l63.559-20.658a1.909 1.909 0 1 1 1.18 3.634l-63.559 20.659a1.95 1.95 0 0 1-.59.093" fill="#FF7070"/><path d="M438.375 160.75a4.781 4.781 0 0 0-4.536 6.252 4.78 4.78 0 0 0 6.015 3.066 4.782 4.782 0 0 0 3.065-6.018 4.783 4.783 0 0 0-4.544-3.3m.01 13.372c-3.621 0-6.999-2.31-8.178-5.94-1.464-4.507 1.012-9.366 5.517-10.83 4.51-1.466 9.363 1.012 10.828 5.518 1.464 4.508-1.012 9.366-5.518 10.83a8.56 8.56 0 0 1-2.649.422" fill="#FF7070"/><path d="M223.78 85.477a5.257 5.257 0 0 0-5.25 5.252 5.257 5.257 0 0 0 5.25 5.252 5.257 5.257 0 0 0 5.25-5.252 5.258 5.258 0 0 0-5.25-5.252m0 14.325c-5 0-9.07-4.07-9.07-9.073 0-5.002 4.07-9.072 9.07-9.072 5.001 0 9.07 4.07 9.07 9.072 0 5.003-4.069 9.073-9.07 9.073" fill="#FFC850"/><path d="M86.354 185.348c-.817 0-1.628.193-2.377.574a5.218 5.218 0 0 0-2.61 3.056 5.221 5.221 0 0 0 .316 4.006 5.213 5.213 0 0 0 3.055 2.61 5.213 5.213 0 0 0 4.005-.314 5.213 5.213 0 0 0 2.608-3.057 5.214 5.214 0 0 0-.314-4.006 5.22 5.22 0 0 0-3.055-2.61 5.258 5.258 0 0 0-1.628-.26m.016 14.329c-.943 0-1.89-.148-2.812-.448a9.012 9.012 0 0 1-5.277-4.509 9.016 9.016 0 0 1-.545-6.921 9.013 9.013 0 0 1 4.507-5.28 9.005 9.005 0 0 1 6.92-.544 9.011 9.011 0 0 1 5.277 4.508 9.014 9.014 0 0 1 .544 6.921 9.008 9.008 0 0 1-4.507 5.28 9.021 9.021 0 0 1-4.107.993" fill="#0EE287"/><path d="M138.857 346.953a5.246 5.246 0 0 0-4.255 2.164 5.219 5.219 0 0 0-.938 3.908 5.216 5.216 0 0 0 2.1 3.428 5.22 5.22 0 0 0 3.907.939 5.221 5.221 0 0 0 3.426-2.101 5.222 5.222 0 0 0 .939-3.908 5.219 5.219 0 0 0-2.1-3.428 5.215 5.215 0 0 0-3.08-1.002m-.026 14.325a9.002 9.002 0 0 1-5.311-1.735 9.013 9.013 0 0 1-3.627-5.92 9.015 9.015 0 0 1 1.62-6.751 9.007 9.007 0 0 1 5.919-3.628 9.008 9.008 0 0 1 6.75 1.62 9.013 9.013 0 0 1 3.626 5.92 9.014 9.014 0 0 1-1.62 6.752 9.007 9.007 0 0 1-5.918 3.628 9.17 9.17 0 0 1-1.439.114" fill="#34BBD1"/><path d="M308.697 346.948c-1.1 0-2.168.345-3.074 1.004a5.26 5.26 0 0 0-1.162 7.337 5.216 5.216 0 0 0 3.427 2.1 5.225 5.225 0 0 0 3.906-.938 5.224 5.224 0 0 0 2.1-3.428 5.222 5.222 0 0 0-.938-3.909 5.215 5.215 0 0 0-3.426-2.1 5.388 5.388 0 0 0-.833-.066m.024 14.323a9.062 9.062 0 0 1-7.35-3.736 9.018 9.018 0 0 1-1.62-6.753 9.014 9.014 0 0 1 3.627-5.92c4.047-2.941 9.73-2.04 12.668 2.007a9.012 9.012 0 0 1 1.62 6.752 9.01 9.01 0 0 1-3.627 5.92 9.02 9.02 0 0 1-5.318 1.73" fill="#0570A5"/><path d="M361.197 185.36a5.257 5.257 0 0 0-4.988 6.874 5.255 5.255 0 0 0 6.614 3.371 5.216 5.216 0 0 0 3.055-2.61 5.215 5.215 0 0 0 .315-4.006 5.259 5.259 0 0 0-4.996-3.629m.01 14.323c-3.823 0-7.386-2.44-8.63-6.268-1.546-4.758 1.067-9.885 5.822-11.43 4.755-1.543 9.88 1.066 11.427 5.824 1.544 4.757-1.068 9.883-5.823 11.43a9.026 9.026 0 0 1-2.796.444" fill="#FF7070"/></g></svg>