<?xml version="1.0" encoding="UTF-8" standalone="no"?>
<svg width="236px" height="145px" viewBox="0 0 236 145" version="1.1" xmlns="http://www.w3.org/2000/svg" xmlns:xlink="http://www.w3.org/1999/xlink">
    <!-- Generator: Sketch 47.1 (45422) - http://www.bohemiancoding.com/sketch -->
    <title>- logo</title>
    <desc>Created with Sketch.</desc>
    <defs>
        <polygon id="path-1" points="107.388695 138 0.0202736842 138 0.0202736842 0.200922936 107.388695 0.200922936 107.388695 138"></polygon>
    </defs>
    <g id="Page-1" stroke="none" stroke-width="1" fill="none" fill-rule="evenodd">
        <g id="Artboard" transform="translate(-182.000000, -59.000000)">
            <g id="--logo" transform="translate(182.000000, 59.000000)">
                <g id="--logo-banner">
                    <g id="Group-3" transform="translate(51.000000, 7.000000)">
                        <mask id="mask-2" fill="white">
                            <use xlink:href="#path-1"></use>
                        </mask>
                        <g id="Clip-2"></g>
                        <path d="M57.1301684,59.0319688 L98.2364842,59.0319688 C103.2828,59.0319688 107.388695,54.9172899 107.388695,49.858767 C107.388695,44.8008771 103.2828,40.6855651 98.2364842,40.6855651 L29.7259579,40.6855651 C27.2173263,40.6855651 25.1760632,38.6396202 25.1760632,36.1252349 L25.1760632,32.6916936 C25.1760632,32.5353358 25.1596421,32.3815101 25.1299579,32.2340147 L25.1299579,0.200922936 L20.6937474,0.200922936 L20.6937474,31.9915651 C20.6223789,32.2137578 20.5737474,32.4460789 20.5737474,32.6916936 L20.5737474,36.1252349 C20.5737474,41.1837578 24.6796421,45.2984367 29.7259579,45.2984367 L98.2364842,45.2984367 C100.745747,45.2984367 102.786379,47.3443817 102.786379,49.858767 C102.786379,52.3731523 100.745747,54.4190972 98.2364842,54.4190972 L53.7044842,54.4190972 C52.4678526,54.4190972 51.4554316,55.402189 51.4055368,56.6302624 C51.4118526,56.6688771 51.4162737,56.7068587 51.4175368,56.7391431 C51.4206947,56.783455 51.4206947,56.827767 51.4181684,56.8720789 C51.4150105,56.9189229 51.4099579,56.9619688 51.4036421,57.0012165 L51.4036421,73.8929229 C51.4036421,74.514556 50.9002737,75.0190789 50.2788,75.0190789 L41.7992211,75.0190789 C41.4329053,75.0190789 41.0899579,74.8411982 40.8796421,74.5405101 C37.5455368,69.7890055 33.1301684,64.7190881 22.8752211,64.7190881 C10.0592211,64.7190881 0.0202736842,74.8519596 0.0202736842,87.7847119 L0.0878526316,118.530859 C0.0897473684,119.800079 1.12237895,120.83318 2.39311579,120.83318 C3.00890526,120.831914 3.58616842,120.59073 4.01943158,120.154574 C4.45269474,119.718418 4.69143158,119.138565 4.69016842,118.522629 L4.62322105,87.7802807 C4.62322105,77.435978 12.6404842,69.3319596 22.8752211,69.3319596 C31.7583789,69.3319596 34.6983789,73.640345 38.1038526,78.6292349 C38.5333263,79.2571982 39.2425895,79.6325835 40.0023789,79.6325835 L67.4065895,79.6325835 C68.1670105,79.6325835 68.8769053,79.2571982 69.3057474,78.6292349 C72.7143789,73.640345 75.6575368,69.3319596 84.5350105,69.3319596 C94.7697474,69.3319596 102.786379,77.4328128 102.786379,87.7758495 L102.719432,121.975161 C102.742168,125.711923 100.397747,129.689235 96.8868,131.870648 C95.5206947,132.721437 94.0289053,133.153161 92.4518526,133.153161 C90.2103789,133.153161 87.9594316,132.268822 85.9459579,130.596996 C83.7783789,128.80173 82.1470105,126.43484 80.4177474,123.925519 C79.6465895,122.804428 78.9480632,121.796015 78.2028,120.811657 L72.8514316,113.733143 C71.6659579,112.106262 68.4625895,109.353226 63.9815368,109.353226 L43.4280632,109.353226 C38.9381684,109.353226 35.6886947,112.186024 34.5859579,113.699593 L22.7811158,129.310051 C20.6880632,132.053593 18.4769053,133.386749 16.0238526,133.386749 C13.1842737,133.386749 10.5531158,131.871281 10.5310105,131.857987 C10.1836421,131.65795 9.78953684,131.551602 9.38974737,131.551602 C8.56995789,131.551602 7.80385263,131.990923 7.39143158,132.694217 C6.75353684,133.793785 7.12553684,135.208602 8.21943158,135.84796 C8.59711579,136.068253 12.0240632,138.000253 16.0238526,138.000253 C19.9510105,138.000253 23.4575368,136.015079 26.4417474,132.104235 L38.2806947,116.450097 C38.6122737,116.035464 40.4185895,113.966097 43.4280632,113.966097 L63.9815368,113.966097 C67.1988,113.966097 69.0752211,116.378565 69.1560632,116.484914 L74.5352211,123.597611 C75.2804842,124.582602 75.9992211,125.628363 76.6371158,126.557648 C78.4649053,129.208134 80.3558526,131.949776 83.0097474,134.151446 C85.7988,136.461996 89.1663789,137.735015 92.4935368,137.735648 L92.4941684,137.735648 C94.9099579,137.735648 97.2689053,137.064006 99.3133263,135.792253 C104.212484,132.744859 107.356484,127.321079 107.322379,121.9644 L107.388695,87.7802807 C107.388695,74.8487945 97.3503789,64.7190881 84.5350105,64.7190881 C74.2863789,64.7190881 69.8672211,69.7890055 66.5305895,74.5411431 C66.3196421,74.8411982 65.9760632,75.0190789 65.6110105,75.0190789 L57.1301684,75.0190789 C56.5093263,75.0190789 56.0059579,74.514556 56.0059579,73.8929229 L56.0059579,60.1587578 C56.0059579,59.5364917 56.5093263,59.0319688 57.1301684,59.0319688" id="Fill-1" fill="#FFFFFF" mask="url(#mask-2)"></path>
                    </g>
                    <path d="M135.500314,93.5739285 C139.870873,93.5739285 143.426071,97.1297547 143.426071,101.499686 C143.426071,105.870873 139.870873,109.426071 135.500314,109.426071 C131.129127,109.426071 127.573929,105.870873 127.573929,101.499686 C127.573929,97.1297547 131.129127,93.5739285 135.500314,93.5739285 M135.500314,114 C142.392905,114 148,108.392277 148,101.499686 C148,94.6070953 142.392905,89 135.500314,89 C128.607723,89 123,94.6070953 123,101.499686 C123,108.392277 128.607723,114 135.500314,114" id="Fill-4" fill="#FFFFFF"></path>
                    <polygon id="Fill-6" fill="#FFFFFF" points="95 105 100 105 100 100 95 100"></polygon>
                    <polygon id="Fill-8" fill="#FFFFFF" points="109 105 114 105 114 100 109 100"></polygon>
                    <path d="M73,93 C71.75226,93 70.7368022,94.0148368 70.7368022,95.2631978 L70.7368022,98.6312884 C70.7368022,99.2418053 70.2418053,99.7368022 69.6312884,99.7368022 L66.2625768,99.7368022 C65.0154579,99.7368022 64,100.75226 64,102 C64,103.24774 65.0154579,104.263198 66.2625768,104.263198 L69.6312884,104.263198 C70.2418053,104.263198 70.7368022,104.758195 70.7368022,105.368712 L70.7368022,108.736802 C70.7368022,109.985163 71.75226,111 73,111 C74.24774,111 75.2631978,109.985163 75.2631978,108.736802 L75.2631978,105.368712 C75.2631978,104.758195 75.7575737,104.263198 76.3687116,104.263198 L79.7374232,104.263198 C80.9845421,104.263198 82,103.24774 82,102 C82,100.75226 80.9845421,99.7368022 79.7374232,99.7368022 L76.3687116,99.7368022 C75.7575737,99.7368022 75.2631978,99.2418053 75.2631978,98.6312884 L75.2631978,95.2631978 C75.2631978,94.0148368 74.24774,93 73,93" id="Fill-9" fill="#FFFFFF"></path>
                    <path d="M15.2453258,38.7618999 L4.45715581,38.7618999 L4.45715581,4.23747168 L14.7706742,4.23747168 C19.0837847,4.23747168 21.7635354,6.91393497 21.7635354,11.2224187 C21.7635354,15.1557326 19.4784816,17.8554476 15.8005666,18.2708367 L14.9546969,18.3657289 L14.9546969,22.5277896 L15.8487932,22.5824626 C20.4506289,22.8646255 23.4241813,26.0589112 23.4241813,30.72057 C23.4241813,35.7555133 20.3668669,38.7618999 15.2453258,38.7618999 M22.0408385,20.1039532 C24.8284646,18.1388674 26.3393541,15.0482718 26.3393541,11.2224187 C26.3393541,4.61515528 21.6309122,0 14.8893371,0 L0,0 L0,43 L15.4826516,43 C22.8524419,43 28,37.9499744 28,30.72057 C28,25.968418 25.6698924,21.9289003 22.0408385,20.1039532" id="Fill-10" fill="#FFFFFF"></path>
                    <polygon id="Fill-11" fill="#FFFFFF" points="55 23 55 19 43.0335496 19 43 23"></polygon>
                    <polygon id="Fill-12" fill="#FFFFFF" points="59.6786063 38.7618999 38.4453722 38.7618999 38.4453722 4.23747168 55.6806826 4.23747168 58.5552385 4.23747168 91 4.23747168 91 0 58.5552385 0 55.6806826 0 34 0 34 43 59.6786063 43"></polygon>
                    <polygon id="Fill-13" fill="#FFFFFF" points="120 38.7618999 100.408599 38.7618999 100.408599 0 96 0 96 43 120 43"></polygon>
                    <path d="M140,0 C127.662927,0 118,9.66079826 118,21.9936919 C118,32.1257025 124.226739,40.8188439 133.494015,43.6259319 L134.729949,44 L134.729949,39.4903659 L134.096397,39.265168 C127.105071,36.7835761 122.587521,30.0036701 122.587521,21.9936919 C122.587521,11.9146691 130.073093,4.31282257 140,4.31282257 C149.926271,4.31282257 157.413115,11.9146691 157.413115,21.9936919 C157.413115,30.0036701 152.895565,36.7835761 145.904239,39.265168 L145.270688,39.4903659 L145.270688,44 L146.505985,43.6259319 C155.773261,40.8188439 162,32.1257025 162,21.9936919 C162,9.66079826 152.336437,0 140,0" id="Fill-14" fill="#FFFFFF"></path>
                    <polygon id="Fill-15" fill="#FFFFFF" points="174.408599 0 170 0 170 43 194 43 194 38.7624664 174.408599 38.7624664"></polygon>
                    <path d="M214.000636,0 C201.663563,0 192,9.66079826 192,21.9936919 C192,32.1257025 198.226739,40.8188439 207.494015,43.6259319 L208.729312,44 L208.729312,39.4903659 L208.096397,39.265168 C201.104435,36.7835761 196.586885,30.0036701 196.586885,21.9936919 C196.586885,11.9146691 204.073729,4.31282257 214.000636,4.31282257 C223.926907,4.31282257 231.413115,11.9146691 231.413115,21.9936919 C231.413115,30.0036701 226.895565,36.7835761 219.904239,39.265168 L219.270688,39.4903659 L219.270688,44 L220.505985,43.6259319 C229.773261,40.8188439 236,32.1257025 236,21.9936919 C236,9.66079826 226.337073,0 214.000636,0" id="Fill-16" fill="#FFFFFF"></path>
                </g>
            </g>
        </g>
    </g>
</svg>