<svg width="140" height="137" viewBox="0 0 140 137" xmlns="http://www.w3.org/2000/svg"><title>challenge</title><g fill="#C6C6C6"><path d="M63.409 70.616l-4.793 4.793a2.104 2.104 0 1 0 2.975 2.975l4.793-4.793a2.104 2.104 0 1 0-2.975-2.975zm38.988-39.998l-32.779 32.78a2.11 2.11 0 1 0 2.985 2.984l32.779-32.78a2.11 2.11 0 1 0-2.985-2.984zm16.958-15.993l-9.73 9.73a2.135 2.135 0 1 0 3.02 3.02l9.73-9.73a2.135 2.135 0 1 0-3.02-3.02zM55.371 49.336L31.664 25.629a2.147 2.147 0 0 0-3.035 3.035l23.707 23.707c.419.42.968.629 1.518.629s1.098-.21 1.517-.629a2.146 2.146 0 0 0 0-3.035zM20.697 14.634a2.166 2.166 0 0 0-3.063 3.063l5.67 5.669c.422.423.976.634 1.53.634a2.165 2.165 0 0 0 1.531-3.697l-5.668-5.669z"/><path d="M137.55 122.715a8.383 8.383 0 0 0-3.221-1.994 8.263 8.263 0 0 0-2.005-3.24 8.299 8.299 0 0 0-3.225-2.01 8.302 8.302 0 0 0-2.005-3.226 8.292 8.292 0 0 0-3.221-2.008 8.3 8.3 0 0 0-2.006-3.226 8.266 8.266 0 0 0-3.238-2.01 8.4 8.4 0 0 0-1.991-3.227c-.1-.1-.205-.196-.31-.29a50.67 50.67 0 0 1 14.552-7.208 2.128 2.128 0 0 0 1.407-2.661l-3.154-10.268a2.126 2.126 0 0 0-2.658-1.41 65.69 65.69 0 0 0-14.19 6.294L94.925 67.75l39.567-37.13c.396-.371.635-.88.668-1.423l1.648-26.936a2.13 2.13 0 0 0-2.253-2.256l-26.9 1.65a2.125 2.125 0 0 0-1.421.67L69.93 41.115 36.305 4.869a2.126 2.126 0 0 0-1.258-.659L5.61.021A2.125 2.125 0 0 0 3.207 2.43L7.39 31.904c.069.484.301.928.658 1.26l37.057 34.48L27.712 86.23a65.693 65.693 0 0 0-14.187-6.293 2.126 2.126 0 0 0-2.658 1.41L7.712 91.613a2.131 2.131 0 0 0 1.407 2.662 50.66 50.66 0 0 1 14.552 7.207 8.15 8.15 0 0 0-.31.291A8.4 8.4 0 0 0 21.37 105a8.264 8.264 0 0 0-3.239 2.01 8.31 8.31 0 0 0-2.005 3.226 8.283 8.283 0 0 0-3.221 2.008 8.307 8.307 0 0 0-2.005 3.226 8.299 8.299 0 0 0-3.225 2.01 8.267 8.267 0 0 0-2.005 3.24 8.385 8.385 0 0 0-3.222 1.995A8.435 8.435 0 0 0 0 128.636a8.446 8.446 0 0 0 2.449 5.912A8.429 8.429 0 0 0 8.361 137a8.425 8.425 0 0 0 5.904-2.452 8.401 8.401 0 0 0 1.992-3.226 8.248 8.248 0 0 0 3.235-2.008c.92-.921 1.6-2.02 2.007-3.23a8.287 8.287 0 0 0 3.222-2.007 8.31 8.31 0 0 0 2.006-3.226 8.287 8.287 0 0 0 3.221-2.007 8.283 8.283 0 0 0 2.006-3.241 8.376 8.376 0 0 0 3.223-1.996c.1-.1.197-.205.291-.31a50.794 50.794 0 0 1 7.198 14.57 2.128 2.128 0 0 0 2.657 1.41l10.254-3.16a2.128 2.128 0 0 0 1.408-2.66 65.873 65.873 0 0 0-6.284-14.208l19.337-18.145 19.261 18.143a65.865 65.865 0 0 0-6.284 14.209 2.131 2.131 0 0 0 1.407 2.661l10.254 3.16a2.12 2.12 0 0 0 2.658-1.41 50.794 50.794 0 0 1 7.197-14.571c.095.105.191.21.292.31a8.384 8.384 0 0 0 3.223 1.997 8.283 8.283 0 0 0 2.006 3.24c.918.92 2.014 1.6 3.221 2.008a8.298 8.298 0 0 0 2.006 3.226 8.29 8.29 0 0 0 3.222 2.007 8.313 8.313 0 0 0 2.007 3.23 8.252 8.252 0 0 0 3.235 2.007 8.398 8.398 0 0 0 1.992 3.226 8.429 8.429 0 0 0 5.912 2.452 8.425 8.425 0 0 0 5.904-2.452A8.448 8.448 0 0 0 140 128.63c0-2.2-.893-4.357-2.45-5.916zM11.495 30.56L7.815 4.637 33.703 8.32l33.315 35.91-19.004 20.306L11.495 30.56zM8.36 132.74a4.145 4.145 0 0 1-2.904-1.205 4.152 4.152 0 0 1-1.204-2.904 4.14 4.14 0 0 1 1.204-2.905 4.063 4.063 0 0 1 1.338-.882l5.345 5.352a4.073 4.073 0 0 1-.882 1.34 4.143 4.143 0 0 1-2.897 1.204zm6.791-5.55l-5.356-5.364a4.09 4.09 0 0 1 2.22-2.227l5.36 5.367a4.097 4.097 0 0 1-2.224 2.223zm5.232-5.235l-5.36-5.368c.203-.494.502-.945.888-1.332a4.077 4.077 0 0 1 1.33-.89l5.361 5.368a4.073 4.073 0 0 1-.89 1.332 4.067 4.067 0 0 1-1.329.89zm5.227-5.233l-5.361-5.369c.203-.494.503-.945.89-1.331a4.054 4.054 0 0 1 1.335-.89l5.354 5.361a4.083 4.083 0 0 1-2.219 2.229zm6.56-6.128a4.075 4.075 0 0 1-1.338.884l-5.346-5.353c.206-.505.506-.964.882-1.34.228-.229.486-.428.762-.596a50.691 50.691 0 0 1 5.634 5.641 4.055 4.055 0 0 1-.595.764zm13.896 13.998A54.925 54.925 0 0 0 12.39 90.87l1.906-6.202a61.357 61.357 0 0 1 23.311 14.588c.014.015.024.032.038.046.014.015.032.024.046.038a61.47 61.47 0 0 1 14.569 23.343l-6.193 1.909zm-3.931-26.774l12.136-12.154c.83-.831.83-2.18 0-3.011a2.124 2.124 0 0 0-3.007 0L39.128 94.807a65.574 65.574 0 0 0-7.766-6.248l77.399-82.705 23.656-1.45-1.45 23.688-82.591 77.503a65.7 65.7 0 0 0-6.24-7.776zm31.01-9.633l18.676-17.524 16.812 17.898a65.597 65.597 0 0 0-7.763 6.247L88.735 82.653a2.124 2.124 0 0 0-3.008 0c-.83.832-.83 2.18 0 3.012l12.137 12.153a65.63 65.63 0 0 0-6.238 7.774l-18.48-17.406zm20.787 36.407l-6.193-1.908a61.466 61.466 0 0 1 14.568-23.343c.015-.014.032-.024.047-.038.014-.014.024-.032.037-.046a61.357 61.357 0 0 1 23.312-14.588l1.905 6.202a54.92 54.92 0 0 0-33.676 33.72zm13.896-13.997a4.052 4.052 0 0 1-.594-.765 50.691 50.691 0 0 1 5.633-5.64c.277.168.535.366.763.595.376.376.676.835.882 1.34l-5.346 5.353a4.067 4.067 0 0 1-1.338-.883zm5.23 5.236a4.05 4.05 0 0 1-.889-1.338l5.355-5.362c.496.203.948.503 1.335.891.387.387.686.837.89 1.331l-5.361 5.369a4.075 4.075 0 0 1-1.33-.89zm5.227 5.234a4.083 4.083 0 0 1-.89-1.332l5.361-5.368a4.07 4.07 0 0 1 1.33.89c.386.387.685.838.89 1.332l-5.362 5.368a4.07 4.07 0 0 1-1.33-.89zm5.229 5.236a4.096 4.096 0 0 1-.892-1.335l5.36-5.367a4.095 4.095 0 0 1 2.22 2.227l-5.356 5.363a4.035 4.035 0 0 1-1.332-.888zm11.028 5.234a4.14 4.14 0 0 1-2.897 1.205 4.142 4.142 0 0 1-2.904-1.205 4.079 4.079 0 0 1-.882-1.34l5.345-5.352a4.07 4.07 0 0 1 1.338.882 4.138 4.138 0 0 1 1.203 2.901 4.154 4.154 0 0 1-1.203 2.909z"/></g></svg>