<svg width="236" height="145" viewBox="0 0 236 145" xmlns="http://www.w3.org/2000/svg" xmlns:xlink="http://www.w3.org/1999/xlink"><title>- logo</title><defs><path id="a" d="M107.389 138H.02V.2h107.37V138z"/></defs><g fill="none" fill-rule="evenodd"><g transform="translate(51 7)"><mask id="b" fill="#fff"><use xlink:href="#a"/></mask><path d="M57.13 59.032h41.106c5.047 0 9.153-4.115 9.153-9.173s-4.106-9.173-9.153-9.173h-68.51a4.56 4.56 0 0 1-4.55-4.56v-3.434c0-.157-.016-.31-.046-.458V.201h-4.436v31.79c-.072.223-.12.455-.12.7v3.434c0 5.059 4.106 9.173 9.152 9.173h68.51a4.56 4.56 0 0 1 4.55 4.56 4.56 4.56 0 0 1-4.55 4.561H53.704a2.305 2.305 0 0 0-2.298 2.211 1.037 1.037 0 0 1-.002.371v16.892c0 .622-.504 1.126-1.125 1.126h-8.48c-.366 0-.709-.178-.92-.478-3.333-4.752-7.749-9.822-18.004-9.822C10.06 64.72.02 74.852.02 87.785l.068 30.746a2.308 2.308 0 0 0 2.305 2.302 2.283 2.283 0 0 0 1.626-.678 2.295 2.295 0 0 0 .671-1.632L4.623 87.78c0-10.344 8.017-18.448 18.252-18.448 8.883 0 11.823 4.308 15.229 9.297a2.3 2.3 0 0 0 1.898 1.004h27.405a2.3 2.3 0 0 0 1.899-1.004c3.408-4.989 6.352-9.297 15.229-9.297 10.235 0 18.251 8.1 18.251 18.444l-.067 34.2c.023 3.736-2.321 7.713-5.832 9.895a8.275 8.275 0 0 1-4.435 1.282c-2.242 0-4.493-.884-6.506-2.556-2.168-1.795-3.799-4.162-5.528-6.671-.771-1.122-1.47-2.13-2.215-3.114l-5.352-7.079c-1.185-1.627-4.388-4.38-8.87-4.38H43.429c-4.49 0-7.74 2.833-8.842 4.347l-11.805 15.61c-2.093 2.744-4.304 4.077-6.757 4.077-2.84 0-5.47-1.516-5.493-1.529a2.29 2.29 0 0 0-1.141-.306c-.82 0-1.586.439-1.999 1.142a2.314 2.314 0 0 0 .828 3.154c.378.22 3.805 2.152 7.805 2.152 3.927 0 7.434-1.985 10.418-5.896L38.28 116.45c.331-.415 2.138-2.484 5.147-2.484h20.554c3.217 0 5.093 2.413 5.174 2.519l5.38 7.113c.744.985 1.463 2.03 2.101 2.96 1.828 2.65 3.719 5.392 6.373 7.593 2.789 2.311 6.156 3.584 9.484 3.585a12.9 12.9 0 0 0 6.82-1.944c4.898-3.047 8.042-8.47 8.008-13.828l.067-34.184c0-12.931-10.039-23.06-22.854-23.06-10.249 0-14.668 5.069-18.004 9.821-.211.3-.555.478-.92.478h-8.48a1.125 1.125 0 0 1-1.125-1.126V60.159c0-.623.503-1.127 1.124-1.127" fill="#FFF" mask="url(#b)"/></g><path d="M135.5 93.574c4.37 0 7.926 3.556 7.926 7.926s-3.555 7.926-7.926 7.926c-4.37 0-7.926-3.555-7.926-7.926 0-4.37 3.555-7.926 7.926-7.926m0 20.426c6.893 0 12.5-5.608 12.5-12.5 0-6.893-5.607-12.5-12.5-12.5-6.892 0-12.5 5.607-12.5 12.5 0 6.892 5.608 12.5 12.5 12.5M95 105h5v-5h-5zm14 0h5v-5h-5zM73 93a2.266 2.266 0 0 0-2.263 2.263v3.368c0 .61-.495 1.106-1.106 1.106h-3.368A2.266 2.266 0 0 0 64 102a2.266 2.266 0 0 0 2.263 2.263h3.368c.61 0 1.106.495 1.106 1.106v3.368A2.266 2.266 0 0 0 73 111a2.266 2.266 0 0 0 2.263-2.263v-3.368c0-.61.495-1.106 1.106-1.106h3.368A2.266 2.266 0 0 0 82 102a2.266 2.266 0 0 0-2.263-2.263H76.37a1.105 1.105 0 0 1-1.106-1.106v-3.368A2.266 2.266 0 0 0 73 93M15.245 38.762H4.457V4.237h10.314c4.313 0 6.993 2.677 6.993 6.985 0 3.934-2.286 6.633-5.963 7.049l-.846.095v4.162l.894.054c4.602.283 7.575 3.477 7.575 8.139 0 5.035-3.057 8.04-8.179 8.04m6.796-18.657c2.787-1.965 4.298-5.056 4.298-8.882C26.34 4.615 21.631 0 14.89 0H0v43h15.483C22.853 43 28 37.95 28 30.72c0-4.752-2.33-8.791-5.96-10.616M55 23v-4H43.034L43 23z" fill="#FFF"/><path fill="#FFF" d="M59.679 38.762H38.445V4.237H91V0H34v43h25.679zm60.321 0h-19.591V0H96v43h24zM140 0c-12.337 0-22 9.66-22 21.994 0 10.132 6.227 18.825 15.494 21.632l1.236.374v-4.51l-.634-.225c-6.99-2.481-11.508-9.261-11.508-17.271 0-10.08 7.485-17.681 17.412-17.681 9.926 0 17.413 7.602 17.413 17.68 0 8.01-4.517 14.79-11.509 17.272l-.633.225V44l1.235-.374C155.773 40.819 162 32.126 162 21.994 162 9.66 152.336 0 140 0m34.409 0H170v43h24v-4.238h-19.591zM214 0c-12.336 0-22 9.66-22 21.994 0 10.132 6.227 18.825 15.494 21.632l1.235.374v-4.51l-.633-.225c-6.992-2.481-11.51-9.261-11.51-17.271 0-10.08 7.488-17.681 17.415-17.681 9.926 0 17.412 7.602 17.412 17.68 0 8.01-4.517 14.79-11.509 17.272l-.633.225V44l1.235-.374C229.773 40.819 236 32.126 236 21.994 236 9.66 226.337 0 214 0"/></g></svg>