<svg width="129" height="129" viewBox="0 0 129 129" xmlns="http://www.w3.org/2000/svg"><title>stream</title><g fill="#C6C6C6"><path d="M98.053 62.244L50.387 30.37a2.21 2.21 0 0 0-2.234-.124A2.12 2.12 0 0 0 47 32.124v63.751c0 .788.444 1.51 1.155 1.878a2.2 2.2 0 0 0 2.232-.123l47.666-31.875A2.113 2.113 0 0 0 99 63.999c0-.703-.355-1.36-.947-1.755zm-46.72 29.608V36.147l41.654 27.852-41.654 27.853z"/><path d="M64.5 0C28.935 0 0 28.935 0 64.5S28.935 129 64.5 129 129 100.065 129 64.5 100.065 0 64.5 0zm0 124.59c-33.133 0-60.09-26.957-60.09-60.09S31.367 4.41 64.5 4.41s60.09 26.957 60.09 60.09-26.957 60.09-60.09 60.09z"/></g></svg>