<svg width="149" height="153" viewBox="0 0 149 153" xmlns="http://www.w3.org/2000/svg"><title>- torneio</title><path d="M144.798 21.415C140.054 14 132.028 9.709 122.057 9.2V2.28c0-1.26-1.024-2.28-2.287-2.28h-16.461a2.283 2.283 0 0 0-2.287 2.28 2.284 2.284 0 0 0 2.287 2.28h14.175v14.468c0 30.65-11.634 58.06-28.948 68.207-6.139 3.597-9.944 10.31-9.933 17.52l.01 6.568H70.39l.01-6.569c.01-7.21-3.796-13.922-9.933-17.518C43.15 77.091 31.517 49.68 31.517 19.03V4.56h61.122a2.283 2.283 0 0 0 2.287-2.28c0-1.26-1.024-2.28-2.287-2.28H29.23a2.283 2.283 0 0 0-2.286 2.28v6.921c-9.97.51-17.995 4.8-22.74 12.214-5.427 8.48-5.608 19.643-.496 30.625 3.884 8.34 11.539 15.326 22.751 20.762 8.36 4.054 15.676 5.725 16.483 5.902l1.864.41c3.982 5.129 8.472 9.2 13.343 12.054 4.744 2.78 7.685 7.983 7.677 13.58l-.01 6.576H52.64c-6.202 0-11.23 5.014-11.23 11.198v2.786h-6.25a2.283 2.283 0 0 0-2.286 2.28v23.132c0 1.26 1.023 2.28 2.286 2.28h14.495a2.283 2.283 0 0 0 2.287-2.28c0-1.26-1.024-2.28-2.287-2.28H37.446v-18.572h74.11v18.572h-51.23a2.283 2.283 0 0 0-2.287 2.28c0 1.26 1.024 2.28 2.287 2.28h53.516a2.283 2.283 0 0 0 2.287-2.28v-23.132c0-1.26-1.024-2.28-2.287-2.28h-6.249v-2.786c0-6.184-5.028-11.198-11.23-11.198H83.187l-.01-6.575c-.01-5.597 2.933-10.802 7.677-13.582 4.87-2.854 9.36-6.925 13.342-12.053l1.867-.41c.808-.178 8.135-1.856 16.48-5.902 11.213-5.437 18.867-12.422 22.75-20.763 5.11-10.98 4.931-22.141-.494-30.624zM27.006 22.912c.423 13.889 3.12 27.155 7.872 38.69a65.471 65.471 0 0 1-1.806-.814c-5.937-2.792-13.692-7.575-16.921-14.51-3.1-6.659-3.24-13.038-.381-17.504 2.18-3.408 6.128-5.45 11.236-5.862zm1.453 45.79c-7.042-3.415-16.332-9.41-20.603-18.582-4.442-9.541-4.367-19.11.204-26.252C11.942 17.8 18.6 14.26 26.944 13.77v4.576c-6.714.464-12.008 3.249-15.03 7.974-3.714 5.804-3.682 13.778.089 21.877 3.807 8.174 12.498 13.6 19.117 16.713a74.917 74.917 0 0 0 6.485 2.672 76.347 76.347 0 0 0 3.278 5.87c-2.88-.833-7.485-2.357-12.424-4.752zm67.905 47.182c3.67 0 6.656 2.977 6.656 6.637v2.786H45.983v-2.786c0-3.66 2.986-6.637 6.656-6.637h43.724zm25.632-92.973c5.106.412 9.056 2.456 11.237 5.862 2.856 4.467 2.717 10.847-.384 17.504-3.231 6.938-10.985 11.72-16.921 14.511a65.38 65.38 0 0 1-1.804.813c4.752-11.535 7.448-24.8 7.872-38.69zm19.148 27.208c-4.27 9.173-13.56 15.168-20.602 18.582-4.933 2.392-9.541 3.917-12.424 4.752a76.265 76.265 0 0 0 3.28-5.874 74.732 74.732 0 0 0 6.48-2.667c6.62-3.111 15.31-8.537 19.118-16.715 3.771-8.097 3.805-16.07.092-21.876-3.026-4.725-8.32-7.51-15.032-7.974V13.77c8.345.49 15.004 4.03 18.886 10.096 4.57 7.144 4.643 16.712.202 26.252z" fill="#C6C6C6"/></svg>