<?xml version="1.0" encoding="UTF-8" standalone="no"?>
<svg width="140px" height="137px" viewBox="0 0 140 137" version="1.1" xmlns="http://www.w3.org/2000/svg" xmlns:xlink="http://www.w3.org/1999/xlink">
    <!-- Generator: Sketch 47.1 (45422) - http://www.bohemiancoding.com/sketch -->
    <title>challenge</title>
    <desc>Created with Sketch.</desc>
    <defs></defs>
    <g id="Page-1" stroke="none" stroke-width="1" fill="none" fill-rule="evenodd">
        <g id="Artboard" transform="translate(-870.000000, -574.000000)" fill-rule="nonzero" fill="#C6C6C6">
            <g id="challenge" transform="translate(870.000000, 574.000000)">
                <path d="M63.4086447,70.6162183 L58.6162183,75.4086447 C57.7945939,76.230269 57.7945939,77.5621573 58.6162183,78.3837817 C59.0270305,78.7945939 59.5652174,79 60.1037868,79 C60.6423562,79 61.1805432,78.7945939 61.5913553,78.3837817 L66.3837817,73.5913553 C67.2054061,72.769731 67.2054061,71.4378427 66.3837817,70.6162183 C65.5621573,69.7945939 64.2306515,69.7945939 63.4086447,70.6162183 Z" id="Shape"></path>
                <path d="M102.397459,30.6181375 L69.6181375,63.3974593 C68.7939542,64.2216426 68.7939542,65.5576791 69.6181375,66.3818625 C70.0302292,66.7939542 70.5700923,67 71.1103391,67 C71.6505859,67 72.190449,66.7939542 72.6025407,66.3818625 L105.381862,33.6025407 C106.206046,32.7783574 106.206046,31.4423209 105.381862,30.6181375 C104.557679,29.7939542 103.221643,29.7939542 102.397459,30.6181375 Z" id="Shape"></path>
                <path d="M119.354798,14.6254576 L109.625458,24.3547976 C108.791514,25.188741 108.791514,26.540599 109.625458,27.3745424 C110.042429,27.7915141 110.588686,28 111.13533,28 C111.681974,28 112.228231,27.7915141 112.645202,27.3745424 L122.374542,17.6452024 C123.208486,16.811259 123.208486,15.459401 122.374542,14.6254576 C121.540211,13.7915141 120.188741,13.7915141 119.354798,14.6254576 Z" id="Shape"></path>
                <path d="M55.3712908,49.3358276 L31.6641532,25.6285662 C30.8258743,24.7906731 29.4669882,24.7902828 28.6287092,25.6285662 C27.7904303,26.4668495 27.7904303,27.8257427 28.6287092,28.664026 L52.3358468,52.3712875 C52.7549863,52.7904292 53.3040824,53 53.8535688,53 C54.4030552,53 54.9521513,52.7904292 55.3712908,52.3712875 C56.2095697,51.5330042 56.2095697,50.174111 55.3712908,49.3358276 Z" id="Shape"></path>
                <path d="M20.6968933,14.6341886 C19.8511241,13.7884069 18.4800961,13.7888007 17.6343269,14.6341886 C16.7885577,15.4799703 16.7885577,16.8510186 17.6343269,17.6968003 L23.3031067,23.3656637 C23.7259913,23.7885546 24.2799937,24 24.8343899,24 C25.3887861,24 25.9427885,23.7885546 26.3656731,23.3656637 C27.2114423,22.5198821 27.2114423,21.1488338 26.3656731,20.3030521 L20.6968933,14.6341886 Z" id="Shape"></path>
                <path d="M137.550209,122.715279 C136.655123,121.818975 135.543128,121.134842 134.328671,120.720954 C133.923853,119.505234 133.244128,118.403341 132.323524,117.481871 C131.403692,116.560788 130.307163,115.879365 129.09928,115.471286 C128.692141,114.262147 128.012804,113.1649 127.094132,112.244979 C126.175847,111.325445 125.080091,110.645183 123.872595,110.237104 C123.465456,109.027965 122.786118,107.931105 121.867447,107.011184 C120.945295,106.087778 119.844126,105.406742 118.629283,105.000598 C118.215959,103.78449 117.532754,102.670596 116.637668,101.774292 C116.537527,101.674014 116.433132,101.577996 116.327964,101.483138 C120.702481,98.3567222 125.59897,95.9028243 130.879786,94.2759264 C131.418771,94.1098295 131.869987,93.7362083 132.134067,93.2371432 C132.398146,92.7380781 132.45305,92.1542224 132.287179,91.6145042 L129.132531,81.3466954 C128.787256,80.2227343 127.596772,79.5916435 126.474724,79.9377755 C121.453348,81.4845288 116.701078,83.6104917 112.28519,86.2308737 L94.9247697,67.7499794 L134.491836,30.6205452 C134.887762,30.2488599 135.127096,29.7393411 135.160348,29.1969128 L136.808234,2.26056314 C136.845353,1.65154115 136.620324,1.05607019 136.189214,0.624760271 C135.758103,0.193063183 135.160734,-0.0322710825 134.555246,0.00489745612 L107.655487,1.6550257 C107.113796,1.68832252 106.604969,1.92759498 106.233788,2.32444657 L69.931177,41.1160113 L36.305318,4.86932994 C35.9735755,4.51158276 35.5293188,4.27927939 35.0467842,4.21036273 L5.61139833,0.0211586917 C4.94907315,-0.0729241715 4.28133492,0.15008706 3.80846645,0.623598754 C3.33559798,1.09711045 3.11288968,1.76575697 3.20684474,2.42898308 L7.39035814,31.9044085 C7.45879455,32.3875995 7.691169,32.8324605 8.04843022,33.1646543 L45.1053887,67.6446685 L27.7124898,86.2297122 C23.2969886,83.6097174 18.5454917,81.4841416 13.5245023,79.9373883 C12.4028413,79.5916435 11.2119706,80.2223471 10.8666954,81.3463083 L7.7120479,91.614117 C7.54617662,92.1538352 7.6010804,92.737691 7.86515985,93.236756 C8.1292393,93.7358211 8.58045558,94.1094424 9.11944058,94.2755393 C14.4002563,95.9024372 19.2967455,98.3559479 23.6712622,101.482751 C23.5660944,101.577608 23.4616999,101.673627 23.3611719,101.774292 C22.4660856,102.670596 21.7828815,103.78449 21.3695566,105.000598 C20.1551004,105.406355 19.053545,106.087778 18.1313935,107.011184 C17.2131084,107.931105 16.5337708,109.027965 16.1262456,110.237104 C14.918749,110.644796 13.8229933,111.325058 12.9047082,112.244979 C11.9864232,113.1649 11.3066989,114.262147 10.8995603,115.471286 C9.69167716,115.879365 8.59514814,116.560788 7.6753165,117.481871 C6.75471156,118.403728 6.0749873,119.505621 5.67016858,120.721342 C4.45571242,121.135229 3.3433309,121.819362 2.44824463,122.715666 C0.892766399,124.273647 0,126.430197 0,128.635143 C0.0038664634,130.837766 0.896246216,132.992767 2.44901792,134.547651 C4.00178962,136.102147 6.15386315,136.996128 8.36084046,137 C10.5604715,136.996128 12.712545,136.102147 14.2653167,134.547651 C15.160403,133.651347 15.8436071,132.537452 16.256932,131.321731 C17.4710015,130.916362 18.571397,130.235713 19.4916153,129.313856 C20.4114469,128.392773 21.0919445,127.294365 21.4994697,126.084839 C22.7069663,125.677147 23.802722,124.996885 24.7213937,124.076964 C25.6396788,123.157042 26.3190164,122.060183 26.7265416,120.851044 C27.9340381,120.443352 29.0297939,119.76309 29.9480789,118.843556 C30.8679106,117.922473 31.5476348,116.820194 31.9540001,115.602924 C33.1672963,115.190198 34.2804512,114.505291 35.1774707,113.606664 C35.2776121,113.506386 35.3735004,113.40185 35.4682287,113.296152 C38.5903979,117.676619 41.0409624,122.579769 42.6656503,127.867768 C42.9471289,128.78343 43.7884713,129.371545 44.6974769,129.371545 C44.9047193,129.371545 45.1154416,129.340958 45.3234573,129.276687 L55.5773182,126.117749 C56.1163032,125.951652 56.5675195,125.578031 56.8315989,125.078966 C57.0956784,124.579901 57.1505822,123.996045 56.9847109,123.456327 C55.4400588,118.428507 53.3173704,113.670547 50.7009346,109.24904 L70.0375047,91.103824 L89.2994521,109.247491 C86.6826296,113.669386 84.5595546,118.427733 83.0149025,123.455939 C82.8490312,123.995658 82.903935,124.579513 83.1680144,125.078578 C83.4320939,125.577643 83.8833101,125.951265 84.4222951,126.117362 L94.6761561,129.2763 C94.8845584,129.340571 95.0948941,129.371157 95.3021365,129.371157 C96.211142,129.371157 97.0524845,128.782656 97.333963,127.86738 C98.9586509,122.579381 101.409215,117.676232 104.531385,113.295765 C104.626113,113.401075 104.722001,113.505612 104.822529,113.606277 C105.719935,114.504904 106.832704,115.189424 108.046,115.602537 C108.452365,116.819807 109.132089,117.922086 110.051921,118.843169 C110.970206,119.762703 112.065962,120.442965 113.273458,120.850657 C113.680597,122.059796 114.359935,123.157042 115.278606,124.076577 C116.196891,124.996111 117.293034,125.67676 118.50053,126.084452 C118.908056,127.293978 119.588166,128.391999 120.507998,129.313082 C121.428603,130.234939 122.528998,130.915588 123.743068,131.320957 C124.156393,132.537065 124.839597,133.650573 125.734683,134.546876 C127.287455,136.101373 129.439529,136.995354 131.646506,136.999226 C133.846137,136.995354 135.99821,136.101373 137.550982,134.546876 C139.103754,132.991993 139.996134,130.836992 140,128.630884 C139.999227,126.430197 139.106847,124.273647 137.550209,122.715279 Z M11.494609,30.5585977 L7.81566912,4.6366394 L33.7020282,8.32097079 L67.0166368,44.2308123 L48.0129692,64.5372239 L11.494609,30.5585977 Z M8.36122711,132.741105 C7.27823071,132.739169 6.21959303,132.299729 5.4567398,131.536225 C4.69388657,130.772334 4.25542962,129.712256 4.25349639,128.631658 C4.25349639,127.551448 4.69195334,126.492919 5.4567398,125.727092 C5.83256004,125.350761 6.29073595,125.050702 6.79492278,124.844726 L12.1399218,130.196996 C11.9338393,130.701481 11.634575,131.160281 11.2583681,131.536612 C10.4951283,132.299729 9.43649058,132.739169 8.36122711,132.741105 Z M15.1522834,127.190216 L9.79645832,121.827106 C9.99867436,121.330751 10.297552,120.879308 10.6830384,120.49291 C11.070458,120.104963 11.5216743,119.804131 12.0158083,119.599704 L17.3762732,124.96746 C17.1721239,125.462266 16.8716997,125.914096 16.4838934,126.30243 C16.098407,126.688441 15.6475774,126.987725 15.1522834,127.190216 Z M20.3839951,121.956034 L15.0231435,116.58789 C15.2265195,116.093859 15.5261704,115.642803 15.9124301,115.256405 C16.2986898,114.86962 16.7487462,114.569948 17.2421069,114.365909 L22.6029584,119.734052 C22.3995824,120.228084 22.0999315,120.67914 21.7136718,121.065538 C21.3277988,121.452323 20.8773558,121.752381 20.3839951,121.956034 Z M25.6106803,116.722626 L20.2498288,111.354483 C20.4532047,110.860451 20.7528557,110.409395 21.1391154,110.022997 C21.5261483,109.635438 21.9781379,109.335379 22.4745918,109.132114 L27.829257,114.494063 C27.6262676,114.992741 27.3266167,115.445732 26.9407437,115.83213 C26.5540973,116.218915 26.104041,116.518587 25.6106803,116.722626 Z M32.1701354,110.595238 C31.7931553,110.972731 31.335366,111.272789 30.8331124,111.478765 L25.4873401,106.125721 C25.6934226,105.621236 25.9926869,105.162437 26.3685071,104.786105 C26.5970151,104.557286 26.8545216,104.35828 27.1313603,104.18986 C29.154294,105.919358 31.0376483,107.805274 32.7647975,109.83096 C32.5962197,110.10895 32.3978701,110.367193 32.1701354,110.595238 Z M46.0665915,124.592677 C40.5414153,108.798759 28.1629328,96.4030509 12.3904686,90.8707463 L14.2958618,84.6694079 C23.187181,87.7478147 31.1219372,92.7756339 37.6071563,99.2568978 C37.6210755,99.2716103 37.6307417,99.2890331 37.6450476,99.3033584 C37.6593535,99.3176838 37.6767526,99.3273631 37.6914452,99.3413013 C44.1639049,105.835342 49.1848943,113.780891 52.259506,122.684305 L46.0665915,124.592677 Z M42.1355582,97.8185528 L54.2723868,85.665215 C55.1029032,84.8335689 55.1029032,83.4854351 54.2723868,82.653789 C53.4418705,81.822143 52.0955679,81.822143 51.2650516,82.653789 L39.128223,94.8071268 C36.7066569,92.5344255 34.1107134,90.4452439 31.3620446,88.5585534 L108.760522,5.85429621 L132.416705,4.40317452 L130.967555,28.0919231 L48.3760301,105.594908 C46.4915159,102.842887 44.4051722,100.243413 42.1355582,97.8185528 Z M73.1469146,88.1864809 L91.8219328,70.6622893 L108.634476,88.5601021 C105.886967,90.4464054 103.292183,92.5348127 100.87139,94.8067396 L88.7345618,82.6534019 C87.9040454,81.8217558 86.5577429,81.8217558 85.7272265,82.6534019 C84.8967102,83.4850479 84.8967102,84.8331818 85.7272265,85.6648278 L97.8640551,97.8181656 C95.5952144,100.242251 93.5092574,102.840564 91.6255164,105.592198 L73.1469146,88.1864809 Z M93.9330218,124.592677 L87.7401074,122.685079 C90.8143324,113.781666 95.8357084,105.836116 102.308168,99.3420757 C102.322861,99.3281375 102.34026,99.3184582 102.354566,99.3041328 C102.368872,99.2898074 102.378538,99.2723847 102.392457,99.2576721 C108.877676,92.7764082 116.812432,87.748589 125.703752,84.6701822 L127.609145,90.8715206 C111.836681,96.4030509 99.4578114,108.798759 93.9330218,124.592677 Z M107.829478,110.595625 C107.601743,110.367193 107.403007,110.109337 107.234816,109.831347 C108.961965,107.805662 110.845319,105.919745 112.868253,104.190247 C113.145092,104.358667 113.402598,104.557286 113.631106,104.786105 C114.006926,105.162437 114.306577,105.621236 114.51266,106.125721 L109.166888,111.478765 C108.663861,111.273177 108.206458,110.972731 107.829478,110.595625 Z M113.05887,115.83213 C112.672997,115.445732 112.373346,114.992741 112.170356,114.494063 L117.525022,109.132114 C118.021475,109.334992 118.473465,109.635051 118.860498,110.022997 C119.246758,110.409782 119.546022,110.860451 119.749785,111.354483 L114.388933,116.722626 C113.895186,116.518587 113.445129,116.218915 113.05887,115.83213 Z M118.285555,121.065538 C117.899295,120.678753 117.600031,120.228084 117.396268,119.734052 L122.75712,114.365909 C123.250481,114.569561 123.700537,114.86962 124.086797,115.256405 C124.473056,115.64319 124.772321,116.093859 124.976083,116.58789 L119.615232,121.956034 C119.121871,121.752381 118.671815,121.452323 118.285555,121.065538 Z M123.514947,126.302043 C123.127527,125.914096 122.827103,125.462266 122.622954,124.96746 L127.983418,119.599704 C128.477552,119.804131 128.928769,120.104963 129.316575,120.49291 C129.702061,120.878921 130.000939,121.330751 130.203155,121.827106 L124.84733,127.190216 C124.351649,126.987725 123.90082,126.688441 123.514947,126.302043 Z M134.54326,131.535838 C133.78002,132.299729 132.721383,132.739169 131.646119,132.741105 C130.563123,132.739169 129.504485,132.300116 128.741632,131.535838 C128.365812,131.159506 128.066161,130.700707 127.860078,130.196222 L133.205077,124.843952 C133.709264,125.050315 134.167053,125.349986 134.542874,125.726318 C135.30766,126.492144 135.746117,127.551061 135.746117,128.6274 C135.74457,129.711869 135.305727,130.771947 134.54326,131.535838 Z" id="Shape"></path>
            </g>
        </g>
    </g>
</svg>