<?xml version="1.0" encoding="UTF-8" standalone="no"?>
<svg width="447px" height="427px" viewBox="0 0 447 427" version="1.1" xmlns="http://www.w3.org/2000/svg" xmlns:xlink="http://www.w3.org/1999/xlink">
    <!-- Generator: Sketch 47.1 (45422) - http://www.bohemiancoding.com/sketch -->
    <title>Group 4</title>
    <desc>Created with Sketch.</desc>
    <defs></defs>
    <g id="Page-1" stroke="none" stroke-width="1" fill="none" fill-rule="evenodd">
        <g id="--Home" transform="translate(-736.000000, -1313.000000)">
            <g id="Page-1" transform="translate(736.000000, 1313.000000)">
                <g id="Group-204">
                    <g id="Group-4">
                        <path d="M223.780236,85.3272117 C222.725819,85.3272117 221.870819,84.4719284 221.870819,83.417162 L221.870819,16.5654227 C221.870819,15.5101577 222.725819,14.6553731 223.780236,14.6553731 C224.834653,14.6553731 225.689653,15.5101577 225.689653,16.5654227 L225.689653,83.417162 C225.689653,84.4719284 224.834653,85.3272117 223.780236,85.3272117" id="Fill-164" fill="#FFC850"></path>
                        <path d="M223.780236,4.77717454 C221.148431,4.77717454 219.006694,6.91962192 219.006694,9.55180006 C219.006694,12.1849756 221.148431,14.3269243 223.780236,14.3269243 C226.41204,14.3269243 228.553778,12.1849756 228.553778,9.55180006 C228.553778,6.91962192 226.41204,4.77717454 223.780236,4.77717454 M223.780236,18.1475224 C219.042589,18.1475224 215.18786,14.2910174 215.18786,9.55180006 C215.18786,4.81258277 219.042589,0.957075148 223.780236,0.957075148 C228.518381,0.957075148 232.372611,4.81258277 232.372611,9.55180006 C232.372611,14.2910174 228.518381,18.1475224 223.780236,18.1475224" id="Fill-166" fill="#FFC850"></path>
                        <path d="M79.4084307,190.252076 C79.2125036,190.252076 79.0140838,190.221655 78.8176582,190.158818 L15.2590045,169.49986 C14.2559375,169.173207 13.7070424,168.095999 14.0325905,167.093098 C14.3591357,166.0892 15.4374826,165.544112 16.439054,165.866277 L79.9982062,186.524736 C81.0007747,186.85139 81.5501683,187.928598 81.2246202,188.931998 C80.9613899,189.739405 80.2130779,190.252076 79.4084307,190.252076" id="Fill-168" fill="#0EE287"></path>
                        <path d="M9.17629042,160.738218 C8.43346246,160.738218 7.69561992,160.914262 7.01411266,161.260863 C5.87893194,161.839863 5.03589699,162.826306 4.64105152,164.04016 C3.8279291,166.544669 5.20290864,169.243674 7.70658785,170.057565 C10.20927,170.871455 12.9078792,169.496519 13.7219987,166.991511 C14.5346226,164.487501 13.159643,161.787997 10.6564624,160.974106 C10.1708822,160.816515 9.67233997,160.738218 9.17629042,160.738218 M9.17529334,174.111558 C8.29686188,174.111558 7.40546833,173.975909 6.52653833,173.690649 C2.02021488,172.225446 -0.454548879,167.366539 1.01016827,162.859221 C1.71909536,160.675879 3.23615944,158.898985 5.28068123,157.857185 C7.32570157,156.815385 9.65439244,156.63186 11.8370104,157.341022 C16.3423368,158.805726 18.8171006,163.664633 17.353879,168.171453 C16.1748266,171.800049 12.7981999,174.111558 9.17529334,174.111558" id="Fill-170" fill="#0EE287"></path>
                        <path d="M95.2702506,414.11379 C94.8808891,414.11379 94.4885363,413.995597 94.149029,413.749235 C93.2960232,413.128843 93.1070757,411.934439 93.7267637,411.08115 L133.007905,356.99732 C133.629089,356.14453 134.821602,355.956517 135.675106,356.574915 C136.528112,357.194808 136.71706,358.389711 136.09787,359.243 L96.8167286,413.32683 C96.4428219,413.840499 95.8605246,414.11379 95.2702506,414.11379" id="Fill-172" fill="#34BBD1"></path>
                        <path d="M85.7439057,413.94817 L85.7538766,413.94817 L85.7439057,413.94817 Z M91.156579,413.103858 C89.6793983,413.103858 88.2216607,413.785591 87.2893867,415.07076 C86.5395792,416.102087 86.2364655,417.365313 86.4358824,418.625048 C86.6352993,419.884285 87.3128182,420.991415 88.3448007,421.740474 C90.4745732,423.288462 93.4648296,422.813194 95.0133019,420.68471 C95.7621123,419.652386 96.065226,418.390157 95.8658091,417.130422 C95.6658937,415.870188 94.9883748,414.764055 93.9568908,414.013999 C93.1108646,413.399093 92.1292349,413.103858 91.156579,413.103858 L91.156579,413.103858 Z M91.13913,426.469219 C89.3882496,426.469219 87.6219144,425.937098 86.1003634,424.830964 C84.2432935,423.481961 83.0233606,421.490123 82.6639117,419.222001 C82.3054598,416.954877 82.8498679,414.682766 84.1989233,412.82508 C86.9832818,408.992513 92.366541,408.137729 96.2008295,410.923509 C98.0578994,412.273011 99.2783309,414.265348 99.6372813,416.533469 C99.9962317,418.800095 99.451325,421.072206 98.1022697,422.93039 C96.4231794,425.241401 93.7983544,426.469219 91.13913,426.469219 L91.13913,426.469219 Z" id="Fill-174" fill="#34BBD1"></path>
                        <path d="M352.289224,414.111347 C351.697953,414.111347 351.116154,413.837556 350.742247,413.323888 L311.460607,359.240556 C310.840421,358.386769 311.029368,357.191866 311.882872,356.571972 C312.738869,355.950583 313.930385,356.142087 314.550572,356.994378 L353.832212,411.078208 C354.452399,411.931496 354.262953,413.125901 353.409947,413.746791 C353.070439,413.992654 352.677588,414.111347 352.289224,414.111347" id="Fill-176" fill="#0570A5"></path>
                        <path d="M352.545823,420.682666 C353.295132,421.713494 354.401896,422.392235 355.660217,422.591718 C356.925517,422.791201 358.182342,422.487987 359.213826,421.737931 C361.3431,420.19094 361.816715,417.198196 360.268742,415.068715 C359.519432,414.03689 358.413666,413.358149 357.153849,413.158666 C355.892538,412.957687 354.632223,413.261399 353.601736,414.012453 C351.472462,415.559942 350.998348,418.551689 352.545823,420.682666 M356.425978,426.472161 C355.9738,426.472161 355.518631,426.436753 355.06396,426.365438 C352.796092,426.005371 350.804914,424.784535 349.455859,422.927348 L349.455859,422.926351 C346.671999,419.092786 347.525004,413.706745 351.3568,410.921464 C353.214369,409.571961 355.485727,409.026375 357.751602,409.385445 C360.018972,409.745013 362.01015,410.966348 363.358706,412.824033 C366.143563,416.657598 365.291555,422.042641 361.458762,424.82892 C359.974103,425.907125 358.225715,426.472161 356.425978,426.472161" id="Fill-178" fill="#0570A5"></path>
                        <path d="M91.9231376,188.00884 C91.3328635,188.00884 90.7505662,187.736047 90.3766595,187.22188 C89.7569715,186.368092 89.945919,185.173688 90.7994233,184.553296 L216.655917,93.0828613 C217.50992,92.4639653 218.703929,92.651978 219.323617,93.5057652 C219.943305,94.3595525 219.754357,95.5534582 218.901352,96.1738503 L93.0443591,187.644285 C92.7053504,187.890646 92.3124991,188.00884 91.9231376,188.00884" id="Fill-180" fill="#0EE287"></path>
                        <path d="M355.642718,188.013727 C355.253855,188.013727 354.861502,187.895534 354.521995,187.649172 L228.65902,96.1737506 C227.806014,95.5538572 227.616568,94.3594527 228.236755,93.5056655 C228.856941,92.6528757 230.048956,92.4628681 230.903956,93.0827615 L356.766931,184.558183 C357.620435,185.178077 357.809383,186.372481 357.189695,187.226767 C356.815788,187.740934 356.233989,188.013727 355.642718,188.013727" id="Fill-182" fill="#FFC850"></path>
                        <path d="M311.273903,347.379995 C311.078973,347.379995 310.879556,347.349076 310.683629,347.28574 C309.681061,346.959086 309.132664,345.881878 309.457714,344.87798 L357.528654,196.907477 C357.855199,195.906073 358.93205,195.353006 359.935117,195.681654 C360.938184,196.008308 361.486581,197.085516 361.161032,198.088915 L313.090591,346.059418 C312.826862,346.865828 312.079547,347.379995 311.273903,347.379995" id="Fill-184" fill="#FF7070"></path>
                        <path d="M301.111717,354.285947 L146.448953,354.285947 C145.394038,354.285947 144.539038,353.430664 144.539038,352.375897 C144.539038,351.321131 145.394038,350.465848 146.448953,350.465848 L301.111717,350.465848 C302.165636,350.465848 303.021134,351.321131 303.021134,352.375897 C303.021134,353.430664 302.165636,354.285947 301.111717,354.285947" id="Fill-186" fill="#0570A5"></path>
                        <path d="M136.1731,347.43211 C135.368951,347.43211 134.62064,346.91894 134.357409,346.11253 L86.1703089,198.104625 C85.8442623,197.102223 86.3921602,196.024017 87.3952272,195.697364 C88.395303,195.372206 89.474647,195.91879 89.8021892,196.922189 L137.98929,344.929097 C138.315835,345.931998 137.76694,347.010204 136.76487,347.336857 C136.568444,347.40119 136.369526,347.43211 136.1731,347.43211" id="Fill-188" fill="#34BBD1"></path>
                        <path d="M368.152988,190.262799 C367.347344,190.262799 366.598533,189.749628 366.3363,188.94272 C366.01125,187.938822 366.559647,186.862112 367.562215,186.535459 L431.121866,165.877498 C432.127426,165.551842 433.202781,166.101418 433.527831,167.10382 C433.853379,168.106721 433.305481,169.183929 432.301916,169.510582 L368.743262,190.16954 C368.547335,190.231879 368.347918,190.262799 368.152988,190.262799" id="Fill-190" fill="#FF7070"></path>
                        <path d="M438.375456,160.750885 C437.887384,160.750885 437.391334,160.82619 436.904258,160.985278 C434.400579,161.798669 433.026597,164.498173 433.83922,167.002682 C434.652343,169.506194 437.349456,170.880632 439.854133,170.068237 C442.356815,169.254346 443.732293,166.555341 442.919171,164.050334 C442.265083,162.035555 440.388072,160.750885 438.375456,160.750885 M438.385427,174.12223 C434.763518,174.12223 431.386393,171.81122 430.206842,168.182624 C428.743122,163.674807 431.218882,158.816399 435.72371,157.352193 C440.233523,155.886492 445.087331,158.364071 446.551549,162.869893 C448.015768,167.37771 445.540007,172.236119 441.034182,173.700822 C440.154754,173.986582 439.262363,174.12223 438.385427,174.12223" id="Fill-192" fill="#FF7070"></path>
                        <path d="M223.780236,85.4767242 C220.884702,85.4767242 218.529589,87.8331171 218.529589,90.7291115 C218.529589,93.6261034 220.884702,95.9814988 223.780236,95.9814988 C226.675271,95.9814988 229.030883,93.6261034 229.030883,90.7291115 C229.030883,87.8331171 226.675271,85.4767242 223.780236,85.4767242 M223.780236,99.8020969 C218.779358,99.8020969 214.710755,95.7316464 214.710755,90.7291115 C214.710755,85.7265767 218.779358,81.6566248 223.780236,81.6566248 C228.781113,81.6566248 232.849716,85.7265767 232.849716,90.7291115 C232.849716,95.7316464 228.781113,99.8020969 223.780236,99.8020969" id="Fill-194" fill="#FFC850"></path>
                        <path d="M86.3544206,185.347787 C85.5368113,185.347787 84.725683,185.540787 83.9768725,185.922298 C82.7280242,186.559147 81.8012341,187.643836 81.3675024,188.978377 C80.9347677,190.311921 81.0469397,191.735232 81.6830796,192.984495 C82.3197181,194.234256 83.404546,195.161353 84.737648,195.594231 C86.0717471,196.028605 87.4930911,195.915399 88.7429365,195.279547 C89.9922834,194.642697 90.9185749,193.55751 91.3513096,192.223467 C91.7855399,190.889424 91.6733679,189.467111 91.037228,188.21735 C90.400091,186.967589 89.315263,186.04099 87.9816625,185.607115 C87.4477237,185.433565 86.8998258,185.347787 86.3544206,185.347787 M86.3698754,199.675653 C85.427132,199.676152 84.4804002,199.527537 83.558097,199.227814 C81.2548318,198.478755 79.3803129,196.877904 78.2805287,194.718999 C77.1807445,192.560593 76.9878087,190.102464 77.735622,187.797937 C78.4844325,185.493908 80.0852517,183.618269 82.2429426,182.518619 C84.4016305,181.418969 86.8589453,181.224473 89.1622105,181.974031 C91.4654758,182.722591 93.3399947,184.32394 94.4397789,186.482346 C95.5390645,188.64175 95.7324989,191.09938 94.9836885,193.403409 C94.2353765,195.707936 92.6350559,197.583076 90.4768665,198.682726 C89.1831493,199.342516 87.7812485,199.675653 86.3698754,199.675653" id="Fill-196" fill="#0EE287"></path>
                        <path d="M138.856703,346.953351 C137.231455,346.953351 135.628144,347.704405 134.602144,349.117243 C133.777555,350.252301 133.445027,351.639705 133.663887,353.025115 C133.883246,354.411023 134.628566,355.628368 135.763249,356.452731 C136.898928,357.277594 138.288365,357.61073 139.670823,357.391798 C141.056272,357.171369 142.273213,356.425303 143.097304,355.290743 C143.921394,354.155186 144.25442,352.767283 144.03556,351.382871 C143.815703,349.996963 143.070382,348.779618 141.9357,347.955254 C141.005919,347.278508 139.926575,346.953351 138.856703,346.953351 M138.83028,361.278225 C136.931333,361.278225 135.08573,360.681771 133.518811,359.543222 C131.559042,358.119412 130.270808,356.015864 129.891916,353.623065 C129.513024,351.229768 130.088841,348.831982 131.512677,346.871563 C132.936514,344.910645 135.038368,343.622982 137.430872,343.243965 C139.824872,342.865945 142.220368,343.439458 144.180636,344.864764 C146.139907,346.288574 147.42814,348.391624 147.807032,350.784921 C148.186423,353.177719 147.610607,355.575505 146.18677,357.536423 C144.763432,359.496343 142.661079,360.785502 140.268575,361.164021 C139.78798,361.240323 139.307385,361.278225 138.83028,361.278225" id="Fill-198" fill="#34BBD1"></path>
                        <path d="M308.696988,346.948015 C307.597702,346.948015 306.529326,347.292622 305.622976,347.952412 C303.281323,349.654501 302.760347,352.945471 304.461373,355.288898 C305.285463,356.423457 306.502405,357.169524 307.887854,357.388955 C309.268317,357.605893 310.659749,357.276247 311.794431,356.450886 C312.928615,355.626024 313.674434,354.409178 313.89479,353.02327 C314.11365,351.636863 313.780125,350.249459 312.956034,349.1144 C312.131944,347.979342 310.915002,347.233276 309.529554,347.013844 C309.251866,346.970457 308.974177,346.948015 308.696988,346.948015 M308.721417,361.270894 C305.914125,361.270894 303.143726,359.974753 301.371907,357.534578 C299.94807,355.574158 299.372752,353.175874 299.751644,350.781579 C300.130536,348.388781 301.418271,346.285731 303.378041,344.861423 C307.425207,341.921043 313.107093,342.822208 316.045501,346.86872 C317.469338,348.828641 318.045652,351.226925 317.665763,353.62122 C317.28737,356.014517 315.999136,358.117068 314.039367,359.541377 C312.433064,360.708352 310.569014,361.270894 308.721417,361.270894" id="Fill-200" fill="#0570A5"></path>
                        <path d="M361.196778,185.359955 C360.660845,185.359955 360.115938,185.443239 359.579008,185.617787 C356.825559,186.512967 355.314478,189.480775 356.208364,192.233641 C357.102749,194.987005 360.066583,196.499086 362.822524,195.605402 L362.822524,195.604903 C364.156125,195.172025 365.240953,194.244928 365.87809,192.995666 C366.514728,191.745905 366.6269,190.322594 366.19267,188.988551 C365.473273,186.772794 363.409807,185.359955 361.196778,185.359955 M361.207247,199.682834 C357.384425,199.682834 353.820845,197.243656 352.576484,193.41458 C351.031003,188.657409 353.643863,183.530197 358.398959,181.984703 C363.154055,180.442201 368.278571,183.051438 369.825547,187.808609 C371.370031,192.56578 368.75767,197.692493 364.003072,199.238486 C363.075285,199.540204 362.133539,199.682834 361.207247,199.682834" id="Fill-202" fill="#FF7070"></path>
                    </g>
                </g>
            </g>
        </g>
    </g>
</svg>