<?xml version="1.0" encoding="UTF-8" standalone="no"?>
<svg width="129px" height="129px" viewBox="0 0 129 129" version="1.1" xmlns="http://www.w3.org/2000/svg" xmlns:xlink="http://www.w3.org/1999/xlink">
    <!-- Generator: Sketch 47.1 (45422) - http://www.bohemiancoding.com/sketch -->
    <title>stream</title>
    <desc>Created with Sketch.</desc>
    <defs></defs>
    <g id="Page-1" stroke="none" stroke-width="1" fill="none" fill-rule="evenodd">
        <g id="Artboard" transform="translate(-576.000000, -578.000000)" fill-rule="nonzero" fill="#C6C6C6">
            <g id="stream" transform="translate(576.000000, 578.000000)">
                <path d="M98.0531667,62.2441777 L50.3865,30.3686674 C49.7213333,29.9266603 48.8633333,29.8777846 48.1526667,30.2454154 C47.4441667,30.6130463 47,31.3355579 47,32.1239455 L47,95.874966 C47,96.6633536 47.4441667,97.3858652 48.1548333,97.7534961 C48.4711667,97.9192487 48.82,98 49.1666667,98 C49.5935,98 50.0203333,97.874623 50.3865,97.6302441 L98.0531667,65.7547338 C98.6446667,65.3594775 99,64.702842 99,63.9994557 C99,63.2960695 98.6446667,62.639434 98.0531667,62.2441777 Z M51.3333333,91.8522766 L51.3333333,36.1466349 L92.9875,63.9994557 L51.3333333,91.8522766 Z" id="Shape"></path>
                <path d="M64.5,0 C28.9347,0 0,28.9347 0,64.5 C0,100.0653 28.9347,129 64.5,129 C100.0653,129 129,100.0653 129,64.5 C129,28.9347 100.0653,0 64.5,0 Z M64.5,124.589744 C31.3669446,124.589744 4.41025641,97.6330554 4.41025641,64.5 C4.41025641,31.3669446 31.3669446,4.41025641 64.5,4.41025641 C97.6330554,4.41025641 124.589744,31.3669446 124.589744,64.5 C124.589744,97.6330554 97.6330554,124.589744 64.5,124.589744 Z" id="Shape"></path>
            </g>
        </g>
    </g>
</svg>