<?xml version="1.0" encoding="UTF-8" standalone="no"?>
<svg width="149px" height="153px" viewBox="0 0 149 153" version="1.1" xmlns="http://www.w3.org/2000/svg" xmlns:xlink="http://www.w3.org/1999/xlink">
    <!-- Generator: Sketch 47.1 (45422) - http://www.bohemiancoding.com/sketch -->
    <title>- torneio</title>
    <desc>Created with Sketch.</desc>
    <defs></defs>
    <g id="Page-1" stroke="none" stroke-width="1" fill="none" fill-rule="evenodd">
        <g id="Artboard" transform="translate(-216.000000, -566.000000)" fill-rule="nonzero" fill="#C6C6C6">
            <g id="--torneio" transform="translate(216.000000, 566.000000)">
                <path d="M144.79807,21.4148363 C140.053602,14.0009394 132.028284,9.70948551 122.056572,9.20118085 L122.056572,2.28034851 C122.056572,1.02109171 121.032879,0.000298826958 119.770046,0.000298826958 L103.308854,0.000298826958 C102.04602,0.000298826958 101.022327,1.02109171 101.022327,2.28034851 C101.022327,3.53960531 102.04602,4.5603982 103.308854,4.5603982 L117.483519,4.5603982 L117.483519,19.0290018 C117.483519,49.6790852 105.850105,77.0892868 88.5357359,87.2362549 C82.3974764,90.833235 78.5915937,97.5463826 78.6026818,104.756181 L78.6131704,111.324397 L70.3888677,111.324397 L70.398757,104.754985 C70.4095453,97.5454862 66.6030633,90.833235 60.4657029,87.2371514 C43.1504351,77.0907809 31.5170205,49.6802805 31.5170205,19.0293007 L31.5170205,4.56009937 L92.6394963,4.56009937 C93.9023301,4.56009937 94.9260227,3.53930649 94.9260227,2.28004969 C94.9260227,1.02079289 93.9023301,0 92.6394963,0 L29.2304941,0 C27.9676603,0 26.9439677,1.02079289 26.9439677,2.28004969 L26.9439677,9.20118085 C16.9731544,9.71008316 8.94873551,14.0015371 4.20486757,21.4151351 C-1.22286055,29.8958442 -1.40386473,41.0582263 3.70800509,52.0398182 C7.59210315,60.3803774 15.2467222,67.3657564 26.4590923,72.8023152 C34.8188484,76.8556041 42.1351335,78.5272421 42.941561,78.7044465 L44.8064436,79.1144371 C48.7882359,84.2426065 53.2782785,88.3135261 58.1492089,91.1676224 C62.8930769,93.9473108 65.8343949,99.1510834 65.8263036,104.748112 L65.8164143,111.324397 L52.6387703,111.324397 C46.4369796,111.324397 41.4096183,116.337817 41.4096183,122.521742 L41.4096183,125.307706 L35.1601792,125.307706 C33.8973453,125.307706 32.8736528,126.328499 32.8736528,127.587756 L32.8736528,150.71995 C32.8736528,151.979207 33.8973453,153 35.1601792,153 L49.6554977,153 C50.9183315,153 51.9420241,151.979207 51.9420241,150.71995 C51.9420241,149.460694 50.9183315,148.439901 49.6554977,148.439901 L37.4464059,148.439901 L37.4464059,129.867506 L43.695845,129.867506 L63.7753224,129.867506 L85.227315,129.867506 L105.306493,129.867506 L111.555932,129.867506 L111.555932,148.439901 L60.3257543,148.439901 C59.0629205,148.439901 58.0392279,149.460694 58.0392279,150.71995 C58.0392279,151.979207 59.0629205,153 60.3257543,153 L113.842458,153 C115.105292,153 116.128985,151.979207 116.128985,150.71995 L116.128985,127.587756 C116.128985,126.328499 115.105292,125.307706 113.842458,125.307706 L107.593019,125.307706 L107.593019,122.521742 C107.593019,116.337817 102.565358,111.324397 96.3638672,111.324397 L83.1859235,111.324397 L83.1754348,104.74871 C83.1667442,99.151681 86.1086616,93.9473108 90.8525295,91.1670247 C95.72346,88.3129285 100.212903,84.2420088 104.194696,79.1141382 L106.061676,78.7041476 C106.869901,78.5263456 114.197274,76.8484322 122.542047,72.8023152 C133.755016,67.3654576 141.409336,60.3800786 145.291636,52.0392205 C150.402906,41.0591228 150.223101,29.8976371 144.79807,21.4148363 Z M27.0057009,22.9116605 C27.4291428,36.8008387 30.1256257,50.0672615 34.8781842,61.6028785 C34.2656469,61.3369225 33.6618002,61.0658865 33.0720382,60.7882762 C27.1354606,57.996336 19.3804502,53.2130128 16.1505444,46.2772392 C13.0500985,39.6193745 12.9113486,33.2397178 15.7699561,28.7737489 C17.9491985,25.3662251 21.8983262,23.3240417 27.0057009,22.9116605 Z M28.4585292,68.7012141 C21.4170469,65.2874149 12.1267974,59.2920496 7.85551818,50.1195562 C3.4143228,40.5786091 3.48894208,31.0101699 8.05989708,23.8676079 C11.9418974,17.800823 18.5997947,14.2609189 26.9442674,13.7708427 L26.9442674,18.3467799 C20.2300311,18.8108582 14.936258,21.5959254 11.9149266,26.3212761 C8.199546,32.1253921 8.23161132,40.0989918 12.0030313,48.1975012 C15.809813,56.3722114 24.5010106,61.798909 31.11995,64.9114906 C33.1661364,65.8752075 35.3468772,66.7689989 37.605234,67.5833024 C38.6397149,69.6377377 39.7332319,71.5971461 40.8833876,73.453758 C38.0023045,72.6200308 33.3980855,71.0960133 28.4585292,68.7012141 Z M96.3638672,115.883899 C100.034296,115.883899 103.020266,118.861411 103.020266,122.521443 L103.020266,125.307407 L85.227315,125.307407 L63.7756221,125.307407 L45.9826711,125.307407 L45.9826711,122.521443 C45.9826711,118.861411 48.9686408,115.883899 52.63907,115.883899 L68.0996443,115.883899 L80.9032929,115.883899 L96.3638672,115.883899 Z M121.995738,22.9113617 C127.101614,23.323444 131.051641,25.366524 133.233281,28.7734501 C136.089491,33.2400166 135.949542,39.6196734 132.849396,46.2766415 C129.617992,53.2154035 121.86418,57.9978301 115.927902,60.7879774 C115.337541,61.0658865 114.734293,61.336026 114.123854,61.6010855 C118.875513,50.0660661 121.571996,36.800241 121.995738,22.9113617 Z M141.144123,50.1192573 C136.874042,59.2917508 127.584092,65.2871161 120.54231,68.7012141 C115.609047,71.093025 111.000932,72.6182378 108.117751,73.4528615 C109.268507,71.5953531 110.362323,69.6350483 111.397104,67.5794177 C113.642874,66.7710907 115.822416,65.8790923 117.877893,64.9120882 C124.497431,61.800702 133.188329,56.3751997 136.99631,48.1972024 C140.76713,40.1001871 140.800694,32.1268862 137.087711,26.3209773 C134.062484,21.5956266 128.768411,18.8102605 122.056272,18.3467799 L122.056272,13.7711415 C130.401344,14.2603212 137.060141,17.8005242 140.942141,23.8670103 C145.511598,31.0107675 145.585018,40.5792067 141.144123,50.1192573 Z" id="Shape"></path>
            </g>
        </g>
    </g>
</svg>